<mxfile host="app.diagrams.net" modified="2023-11-13T12:51:08.358Z" agent="Mozilla/5.0 (Windows NT 10.0; Win64; x64) AppleWebKit/537.36 (KHTML, like Gecko) Chrome/116.0.0.0 Safari/537.36 OPR/102.0.0.0" etag="_yx44bu2Mq5HhbAyjGIS" version="22.1.0" type="device">
  <diagram name="PÃ¡gina-1" id="S2wlQ8VmE5MWqK715mNM">
    <mxGraphModel dx="839" dy="454" grid="1" gridSize="10" guides="1" tooltips="1" connect="1" arrows="1" fold="1" page="1" pageScale="1" pageWidth="827" pageHeight="1169" math="0" shadow="0">
      <root>
        <mxCell id="0" />
        <mxCell id="1" parent="0" />
        <mxCell id="3b7SnwfUQY5TFYHuCRq0-1" value="SistemasAudioFacade&lt;div style=&quot;text-align: left;&quot;&gt;&lt;/div&gt;" style="swimlane;fontStyle=1;align=center;verticalAlign=top;childLayout=stackLayout;horizontal=1;startSize=26;horizontalStack=0;resizeParent=1;resizeParentMax=0;resizeLast=0;collapsible=1;marginBottom=0;whiteSpace=wrap;html=1;fillColor=#dae8fc;strokeColor=#6c8ebf;" vertex="1" parent="1">
          <mxGeometry x="270" y="490" width="200" height="150" as="geometry" />
        </mxCell>
        <mxCell id="3b7SnwfUQY5TFYHuCRq0-2" value="+ sistemaAudio: SistemaAudio" style="text;strokeColor=none;fillColor=none;align=left;verticalAlign=top;spacingLeft=4;spacingRight=4;overflow=hidden;rotatable=0;points=[[0,0.5],[1,0.5]];portConstraint=eastwest;whiteSpace=wrap;html=1;" vertex="1" parent="3b7SnwfUQY5TFYHuCRq0-1">
          <mxGeometry y="26" width="200" height="24" as="geometry" />
        </mxCell>
        <mxCell id="3b7SnwfUQY5TFYHuCRq0-3" value="" style="line;strokeWidth=1;fillColor=none;align=left;verticalAlign=middle;spacingTop=-1;spacingLeft=3;spacingRight=3;rotatable=0;labelPosition=right;points=[];portConstraint=eastwest;strokeColor=inherit;" vertex="1" parent="3b7SnwfUQY5TFYHuCRq0-1">
          <mxGeometry y="50" width="200" height="8" as="geometry" />
        </mxCell>
        <mxCell id="3b7SnwfUQY5TFYHuCRq0-4" value="+ Ligar(): void&lt;br&gt;&lt;br&gt;+ Desligar(): void&lt;br&gt;&lt;br&gt;+AjustarVolume(volume int): void" style="text;strokeColor=none;fillColor=none;align=left;verticalAlign=top;spacingLeft=4;spacingRight=4;overflow=hidden;rotatable=0;points=[[0,0.5],[1,0.5]];portConstraint=eastwest;whiteSpace=wrap;html=1;" vertex="1" parent="3b7SnwfUQY5TFYHuCRq0-1">
          <mxGeometry y="58" width="200" height="92" as="geometry" />
        </mxCell>
        <mxCell id="3b7SnwfUQY5TFYHuCRq0-5" value="SistemasAudio&lt;div style=&quot;text-align: left;&quot;&gt;&lt;/div&gt;" style="swimlane;fontStyle=1;align=center;verticalAlign=top;childLayout=stackLayout;horizontal=1;startSize=26;horizontalStack=0;resizeParent=1;resizeParentMax=0;resizeLast=0;collapsible=1;marginBottom=0;whiteSpace=wrap;html=1;fillColor=#dae8fc;strokeColor=#6c8ebf;" vertex="1" parent="1">
          <mxGeometry x="270" y="720" width="200" height="150" as="geometry" />
        </mxCell>
        <mxCell id="3b7SnwfUQY5TFYHuCRq0-6" value="+ sistemaAudio: SistemaAudio" style="text;strokeColor=none;fillColor=none;align=left;verticalAlign=top;spacingLeft=4;spacingRight=4;overflow=hidden;rotatable=0;points=[[0,0.5],[1,0.5]];portConstraint=eastwest;whiteSpace=wrap;html=1;" vertex="1" parent="3b7SnwfUQY5TFYHuCRq0-5">
          <mxGeometry y="26" width="200" height="24" as="geometry" />
        </mxCell>
        <mxCell id="3b7SnwfUQY5TFYHuCRq0-7" value="" style="line;strokeWidth=1;fillColor=none;align=left;verticalAlign=middle;spacingTop=-1;spacingLeft=3;spacingRight=3;rotatable=0;labelPosition=right;points=[];portConstraint=eastwest;strokeColor=inherit;" vertex="1" parent="3b7SnwfUQY5TFYHuCRq0-5">
          <mxGeometry y="50" width="200" height="8" as="geometry" />
        </mxCell>
        <mxCell id="3b7SnwfUQY5TFYHuCRq0-8" value="+ Ligar(): void&lt;br&gt;&lt;br&gt;+ Desligar(): void&lt;br&gt;&lt;br&gt;+AjustarVolume: void" style="text;strokeColor=none;fillColor=none;align=left;verticalAlign=top;spacingLeft=4;spacingRight=4;overflow=hidden;rotatable=0;points=[[0,0.5],[1,0.5]];portConstraint=eastwest;whiteSpace=wrap;html=1;" vertex="1" parent="3b7SnwfUQY5TFYHuCRq0-5">
          <mxGeometry y="58" width="200" height="92" as="geometry" />
        </mxCell>
        <mxCell id="3b7SnwfUQY5TFYHuCRq0-9" style="edgeStyle=orthogonalEdgeStyle;rounded=0;orthogonalLoop=1;jettySize=auto;html=1;exitX=0.5;exitY=0;exitDx=0;exitDy=0;entryX=0.5;entryY=0.989;entryDx=0;entryDy=0;entryPerimeter=0;endArrow=none;endFill=0;startArrow=classic;startFill=1;" edge="1" parent="1" source="3b7SnwfUQY5TFYHuCRq0-5" target="3b7SnwfUQY5TFYHuCRq0-4">
          <mxGeometry relative="1" as="geometry" />
        </mxCell>
      </root>
    </mxGraphModel>
  </diagram>
</mxfile>
